<svg xmlns="http://www.w3.org/2000/svg" xmlns:xlink="http://www.w3.org/1999/xlink" width="500" zoomAndPan="magnify" viewBox="0 0 375 374.999991" height="500" preserveAspectRatio="xMidYMid meet" version="1.0"><defs><g/><clipPath id="debc7cf750"><path d="M 116.761719 146.058594 L 176 146.058594 L 176 218 L 116.761719 218 Z M 116.761719 146.058594 " clip-rule="nonzero"/></clipPath></defs><rect x="-37.5" width="450" fill="#ffffff" y="-37.499999" height="449.999989" fill-opacity="1"/><rect x="-37.5" width="450" fill="#ffffff" y="-37.499999" height="449.999989" fill-opacity="1"/><g fill="#2c6522" fill-opacity="1"><g transform="translate(47.211222, 220.659336)"><g><path d="M 53.433594 -51.269531 C 53.972656 -51.132812 54.515625 -50.863281 54.921875 -50.863281 C 55.867188 -50.863281 56.410156 -51.402344 56.949219 -52.082031 L 61.277344 -61.007812 C 61.414062 -61.414062 61.820312 -62.089844 61.957031 -62.632812 C 61.957031 -63.308594 61.820312 -63.984375 60.875 -64.390625 C 56.003906 -66.148438 48.832031 -67.09375 40.988281 -67.09375 C 29.355469 -67.09375 15.152344 -62.226562 13.121094 -47.210938 C 9.738281 -23.402344 45.585938 -29.488281 44.097656 -18.53125 C 43.558594 -14.472656 40.175781 -13.390625 32.332031 -13.390625 C 26.785156 -13.390625 19.480469 -16.097656 15.015625 -17.722656 C 14.609375 -17.855469 14.070312 -17.992188 13.664062 -17.992188 C 12.714844 -17.992188 12.039062 -17.585938 11.5 -16.910156 L 7.304688 -9.199219 C 7.167969 -8.792969 6.765625 -8.386719 6.765625 -7.847656 C 6.628906 -7.167969 6.898438 -6.492188 7.710938 -5.816406 C 11.5 -2.839844 19.207031 1.082031 31.382812 1.082031 C 52.890625 1.082031 60.195312 -8.929688 61.550781 -18.667969 C 64.929688 -42.882812 29.21875 -36.929688 30.707031 -47.210938 C 30.84375 -48.5625 32.195312 -52.621094 41.257812 -52.621094 C 45.179688 -52.621094 50.457031 -52.082031 53.433594 -51.269531 Z M 53.433594 -51.269531 "/></g></g></g><g fill="#2c6522" fill-opacity="1"><g transform="translate(102.273866, 220.659336)"><g/></g></g><g fill="#2c6522" fill-opacity="1"><g transform="translate(120.940101, 220.659336)"><g/></g></g><g fill="#2c6522" fill-opacity="1"><g transform="translate(139.606336, 220.659336)"><g/></g></g><g fill="#2c6522" fill-opacity="1"><g transform="translate(158.272571, 220.659336)"><g/></g></g><g fill="#2c6522" fill-opacity="1"><g transform="translate(176.938806, 220.659336)"><g/></g></g><g fill="#2c6522" fill-opacity="1"><g transform="translate(195.612241, 220.659336)"><g><path d="M 54.921875 -80.621094 C 55.597656 -80.621094 56.542969 -81.027344 56.679688 -82.109375 L 58.304688 -93.472656 C 58.304688 -93.878906 58.304688 -94.828125 57.355469 -95.097656 C 54.378906 -95.636719 51 -96.179688 48.292969 -96.179688 C 36.523438 -96.179688 25.835938 -88.738281 23.945312 -75.210938 L 22.589844 -66.011719 L 15.960938 -66.011719 C 14.339844 -66.011719 13.390625 -64.660156 13.257812 -63.578125 L 11.769531 -53.164062 C 11.632812 -52.082031 12.175781 -50.726562 13.796875 -50.726562 L 20.425781 -50.726562 L 13.664062 -2.433594 C 13.390625 -0.8125 14.746094 0 15.828125 0 L 28.40625 0 C 29.488281 0 30.84375 -0.8125 31.113281 -2.433594 L 37.875 -50.726562 L 48.429688 -50.726562 C 50.050781 -50.726562 51.132812 -52.082031 51.269531 -53.164062 L 52.757812 -63.578125 C 52.890625 -64.660156 52.214844 -66.011719 50.59375 -66.011719 L 40.039062 -66.011719 L 40.582031 -69.9375 C 40.988281 -73.046875 42.609375 -80.894531 51.402344 -80.894531 C 52.621094 -80.894531 53.839844 -80.894531 54.921875 -80.621094 Z M 54.921875 -80.621094 "/></g></g></g><g fill="#2c6522" fill-opacity="1"><g transform="translate(235.515362, 220.659336)"><g><path d="M 26.917969 -71.152344 C 32.058594 -71.152344 36.792969 -73.316406 37.605469 -79.539062 C 38.554688 -86.304688 34.496094 -88.0625 29.355469 -88.0625 C 24.214844 -88.0625 19.886719 -86.304688 18.9375 -79.539062 C 18.125 -73.316406 21.777344 -71.152344 26.917969 -71.152344 Z M 34.765625 -63.578125 C 34.902344 -65.203125 33.683594 -66.011719 32.601562 -66.011719 L 20.019531 -66.011719 C 18.9375 -66.011719 17.449219 -65.203125 17.316406 -63.578125 L 8.65625 -2.433594 C 8.386719 -0.8125 9.738281 0 10.820312 0 L 23.402344 0 C 24.484375 0 25.835938 -0.8125 26.109375 -2.433594 Z M 34.765625 -63.578125 "/></g></g></g><g fill="#2c6522" fill-opacity="1"><g transform="translate(261.486002, 220.659336)"><g><path d="M 43.421875 -16.636719 C 43.015625 -14.339844 38.417969 -13.390625 34.089844 -13.390625 C 28.273438 -13.390625 25.835938 -14.878906 26.648438 -20.425781 C 27.324219 -25.972656 33.953125 -26.917969 39.09375 -26.917969 L 44.777344 -26.917969 Z M 21.101562 -50.050781 C 26.511719 -51.269531 30.84375 -51.808594 35.035156 -51.808594 C 43.289062 -51.808594 46.941406 -49.238281 45.859375 -41.527344 L 45.722656 -40.71875 L 35.304688 -40.71875 C 22.589844 -40.71875 11.5 -36.792969 8.929688 -19.074219 C 6.492188 -1.757812 18.804688 1.082031 32.332031 1.082031 C 39.5 1.082031 58.707031 -1.488281 59.113281 -4.734375 L 64.253906 -40.71875 C 66.691406 -58.304688 57.492188 -67.09375 40.71875 -67.09375 C 33.820312 -67.09375 27.191406 -66.554688 20.5625 -64.527344 C 19.613281 -64.121094 18.9375 -63.441406 18.804688 -62.496094 L 19.34375 -51.269531 C 19.613281 -50.320312 20.425781 -50.050781 21.101562 -50.050781 Z M 21.101562 -50.050781 "/></g></g></g><path fill="#2c6522" d="M 162.917969 185.164062 L 188.640625 147.773438 L 134.613281 190.578125 L 154 190.578125 L 128.277344 227.96875 L 182.304688 185.164062 L 162.917969 185.164062 " fill-opacity="1" fill-rule="nonzero"/><g clip-path="url(#debc7cf750)"><path fill="#2c6522" d="M 135.796875 210.628906 C 129.476562 204.507812 125.996094 196.292969 125.996094 187.496094 C 125.996094 169.738281 140.441406 155.292969 158.199219 155.292969 C 162.75 155.292969 167.144531 156.222656 171.261719 158.054688 L 175.015625 149.613281 C 169.707031 147.253906 164.050781 146.058594 158.199219 146.058594 C 135.351562 146.058594 116.761719 164.648438 116.761719 187.496094 C 116.761719 198.8125 121.238281 209.386719 129.371094 217.261719 L 135.796875 210.628906 " fill-opacity="1" fill-rule="nonzero"/></g><path fill="#2c6522" d="M 181.132812 164.890625 C 187.109375 170.953125 190.398438 178.980469 190.398438 187.496094 C 190.398438 205.25 175.953125 219.695312 158.199219 219.695312 C 153.808594 219.695312 149.558594 218.832031 145.5625 217.125 L 141.933594 225.617188 C 147.082031 227.816406 152.554688 228.933594 158.199219 228.933594 C 181.046875 228.933594 199.636719 210.34375 199.636719 187.496094 C 199.636719 176.539062 195.402344 166.210938 187.710938 158.40625 L 181.132812 164.890625 " fill-opacity="1" fill-rule="nonzero"/></svg>